<?xml version="1.0" encoding="iso-8859-1"?>
<!-- Generator: Adobe Illustrator 19.0.0, SVG Export Plug-In . SVG Version: 6.00 Build 0)  -->
<svg version="1.1" id="Capa_1" xmlns="http://www.w3.org/2000/svg" xmlns:xlink="http://www.w3.org/1999/xlink" x="0px" y="0px"
	 viewBox="0 0 384.861 384.861" style="enable-background:new 0 0 384.861 384.861;" xml:space="preserve">
<g>
	<path id="Vintage_Arrow_Up_2_" d="M183.934,3.441l-84.2,82.997c-4.74,4.704-4.74,12.319,0,17.011
		c4.752,4.704,12.439,4.704,17.191,0l63.472-62.57v135.557l-80.856,79.701c-2.045,2.033-3.573,5.534-3.573,8.517v108.273
		c0,10.502,13.257,15.916,20.74,8.505l75.61-74.54l75.61,74.54c7.302,7.23,20.524,2.298,20.524-9.612V265.761
		c0-3.513-0.674-6.978-3.344-9.624l-80.651-79.508V40.674l63.688,62.786c4.74,4.704,12.439,4.704,17.191,0
		c4.74-4.704,4.74-12.319,0-17.011l-84.2-83.009C198.828,1.167,195.652,0,192.439,0C189.588,0,185.979,1.408,183.934,3.441z
		 M264.381,269.683v74.311l-59.935-59.081v-74.311L264.381,269.683z M180.385,284.709l-60.368,59.514V269.9l60.368-59.514V284.709z"
		/>
	<g>
	</g>
	<g>
	</g>
	<g>
	</g>
	<g>
	</g>
	<g>
	</g>
	<g>
	</g>
</g>
<g>
</g>
<g>
</g>
<g>
</g>
<g>
</g>
<g>
</g>
<g>
</g>
<g>
</g>
<g>
</g>
<g>
</g>
<g>
</g>
<g>
</g>
<g>
</g>
<g>
</g>
<g>
</g>
<g>
</g>
</svg>
